<?xml version="1.0" encoding="UTF-8" standalone="no"?>
<!-- Created with Inkscape (http://www.inkscape.org/) -->

<svg
   width="310.38293mm"
   height="209.36609mm"
   viewBox="0 0 310.38293 209.36609"
   version="1.1"
   id="svg5"
   inkscape:version="1.1.2 (1:1.1+202202050950+0a00cf5339)"
   sodipodi:docname="social-distancing.svg"
   xmlns:inkscape="http://www.inkscape.org/namespaces/inkscape"
   xmlns:sodipodi="http://sodipodi.sourceforge.net/DTD/sodipodi-0.dtd"
   xmlns="http://www.w3.org/2000/svg"
   xmlns:svg="http://www.w3.org/2000/svg">
  <sodipodi:namedview
     id="namedview7"
     pagecolor="#ffffff"
     bordercolor="#666666"
     borderopacity="1.0"
     inkscape:pageshadow="2"
     inkscape:pageopacity="0.0"
     inkscape:pagecheckerboard="0"
     inkscape:document-units="mm"
     showgrid="false"
     fit-margin-top="0"
     fit-margin-left="0"
     fit-margin-right="0"
     fit-margin-bottom="0"
     inkscape:zoom="0.53291924"
     inkscape:cx="524.46971"
     inkscape:cy="229.86597"
     inkscape:window-width="1860"
     inkscape:window-height="1017"
     inkscape:window-x="60"
     inkscape:window-y="26"
     inkscape:window-maximized="1"
     inkscape:current-layer="layer1" />
  <defs
     id="defs2">
    <inkscape:path-effect
       effect="bspline"
       id="path-effect1573"
       is_visible="true"
       lpeversion="1"
       weight="33.333333"
       steps="2"
       helper_size="0"
       apply_no_weight="true"
       apply_with_weight="true"
       only_selected="false" />
    <inkscape:path-effect
       effect="bspline"
       id="path-effect1567"
       is_visible="true"
       lpeversion="1"
       weight="33.333333"
       steps="2"
       helper_size="0"
       apply_no_weight="true"
       apply_with_weight="true"
       only_selected="false" />
    <inkscape:path-effect
       effect="bspline"
       id="path-effect1561"
       is_visible="true"
       lpeversion="1"
       weight="33.333333"
       steps="2"
       helper_size="0"
       apply_no_weight="true"
       apply_with_weight="true"
       only_selected="false" />
    <inkscape:path-effect
       effect="bspline"
       id="path-effect1555"
       is_visible="true"
       lpeversion="1"
       weight="33.333333"
       steps="2"
       helper_size="0"
       apply_no_weight="true"
       apply_with_weight="true"
       only_selected="false" />
    <inkscape:path-effect
       effect="bspline"
       id="path-effect1469"
       is_visible="true"
       lpeversion="1"
       weight="33.333333"
       steps="2"
       helper_size="0"
       apply_no_weight="true"
       apply_with_weight="true"
       only_selected="false" />
    <marker
       style="overflow:visible"
       id="Arrow2Mend"
       refX="0"
       refY="0"
       orient="auto"
       inkscape:stockid="Arrow2Mend"
       inkscape:isstock="true">
      <path
         transform="scale(-0.6)"
         d="M 8.7185878,4.0337352 -2.2072895,0.01601326 8.7185884,-4.0017078 c -1.7454984,2.3720609 -1.7354408,5.6174519 -6e-7,8.035443 z"
         style="fill:context-stroke;fill-rule:evenodd;stroke:context-stroke;stroke-width:0.625;stroke-linejoin:round"
         id="path1056" />
    </marker>
    <marker
       style="overflow:visible"
       id="Arrow2Mstart"
       refX="0"
       refY="0"
       orient="auto"
       inkscape:stockid="Arrow2Mstart"
       inkscape:isstock="true">
      <path
         transform="scale(0.6)"
         d="M 8.7185878,4.0337352 -2.2072895,0.01601326 8.7185884,-4.0017078 c -1.7454984,2.3720609 -1.7354408,5.6174519 -6e-7,8.035443 z"
         style="fill:context-stroke;fill-rule:evenodd;stroke:context-stroke;stroke-width:0.625;stroke-linejoin:round"
         id="path1053" />
    </marker>
    <inkscape:path-effect
       effect="bspline"
       id="path-effect1027"
       is_visible="true"
       lpeversion="1"
       weight="33.333333"
       steps="2"
       helper_size="0"
       apply_no_weight="true"
       apply_with_weight="true"
       only_selected="false" />
    <inkscape:path-effect
       effect="bspline"
       id="path-effect990"
       is_visible="true"
       lpeversion="1"
       weight="33.333333"
       steps="2"
       helper_size="0"
       apply_no_weight="true"
       apply_with_weight="true"
       only_selected="false" />
  </defs>
  <g
     inkscape:label="Layer 1"
     inkscape:groupmode="layer"
     id="layer1"
     transform="translate(-33.248372,-32.387497)">
    <path
       id="path3445"
       style="fill:#2e3436;stroke-width:0.264583"
       d="m 164.46742,132.63562 c 0.0462,-0.0123 0.0909,-0.0224 0.11755,-0.0202 0.0115,8.1e-4 0.0245,0.003 0.0368,0.004 0,0 -0.15434,0.0166 -0.15434,0.0166 z m -4.63307,21.88447 c -0.15074,0.49043 -0.11323,1.05586 -0.15074,1.35733 -0.0375,0.30146 -0.11323,0.11323 -0.11323,0.94262 0,0.8294 -0.15073,2.52569 -0.33897,3.39259 -0.18896,0.86761 -0.18896,1.39482 -0.18896,1.96097 0,0.56543 -0.60293,3.01539 -0.60293,3.01539 l -0.075,1.09408 -0.075,0.37647 -0.0382,-1.73379 -0.22646,-0.67866 c 0,0 -0.67866,-5.84326 -0.67866,-6.22046 0,-0.37719 -0.18823,-1.05585 -0.18823,-1.05585 l 0.15073,-0.49043 0.11323,-1.88453 0.18824,-0.86762 c 0,0 0.22646,-2.14921 0.37719,-4.07196 0.15073,-1.92276 0.64116,-4.59917 0.64116,-4.59917 l 0.15001,-0.75439 c 0,0 0.41542,1.31982 0.75439,5.16532 0.2957,3.34715 -0.17237,2.41751 0.15073,3.46831 0.15074,0.49043 0.30147,1.09336 0.15074,1.58378 z m 7.42704,-26.54134 -0.15073,-0.15145 c 0,0 0.0382,-0.0375 0.18896,-0.22646 0.15073,-0.18823 -0.18896,-0.26324 -0.22646,-0.45148 -0.0382,-0.18896 -0.71617,-2.37567 -0.71617,-2.37567 0,0 0.075,-0.49043 -0.075,-0.8294 -0.15145,-0.33897 -0.0757,-1.54556 -0.11395,-2.29994 -0.0375,-0.75367 -0.52721,-1.20587 -1.01763,-1.47056 -0.49043,-0.26324 -1.12654,-0.45364 -1.54556,-0.41469 -1.78212,0.17092 -1.70206,0.22357 -0.60366,-0.30147 0,0 0.0757,-0.60293 0.22575,-1.01763 0.15145,-0.4147 -0.0368,-0.22574 -0.15002,-0.67866 -0.11323,-0.45292 -0.0382,-0.45292 0.0375,-0.98013 0.0757,-0.52865 -0.0375,-0.75439 -0.22646,-0.98085 -0.18824,-0.22502 -0.22574,-0.075 -0.22574,-0.75366 0,-0.67795 -0.33897,-1.43305 -0.67866,-3.16678 -0.33969,-1.73437 -2.26244,-3.61962 -2.67642,-3.88308 -0.41542,-0.26389 -0.98085,-0.33947 -1.39555,-0.33947 -0.41469,0 -0.79189,0.26389 -0.79189,0.26389 0,0 -0.56471,0.11301 -0.9419,0.15081 -0.3772,0.0379 -0.86762,0.60329 -1.31982,1.13143 -0.4522,0.52735 -1.05586,2.11121 -1.24409,3.28001 -0.18824,1.16836 -0.11323,1.58306 -0.4147,2.78892 -0.30147,1.20731 -0.56543,1.73452 -0.56543,1.73452 l 0.22573,0.90512 1.29387,0.79117 c 0,0 0.31372,0.47095 0.31372,0.47095 0,0 -1.0472,0.5236 -2.21052,0.73636 -1.0811,0.19761 -1.20659,0.49042 -1.50805,2.18672 -0.30147,1.69629 -0.45292,4.67418 -0.71689,6.86161 -0.26324,2.186 1.35805,4.56167 1.58451,4.82563 0.14135,0.16516 0.52504,0.16372 0.79261,0.13992 0.12405,2.07493 0.17381,0.20843 -0.001,2.0468 -0.075,0.79189 -0.18824,1.69629 -0.18824,1.69629 l -0.0757,0.60366 c 0,0 -0.22574,0.71544 -0.37719,1.28159 -0.15001,0.56543 0,1.88525 0,1.88525 0,0 0.0382,1.88525 0.0382,2.29995 v 1.01691 c 0,0 0.33897,4.52489 0.60293,6.48514 0.26397,1.96026 0.3772,4.75063 0.3772,4.75063 l -0.0375,0.30146 0.075,0.30147 -0.11323,0.3772 c 0,0 0.0382,0.37647 0,0.67866 -0.0375,0.30146 -0.22574,1.28231 -0.22574,1.28231 0,0 0.11323,0.9044 0.0375,2.41246 -0.0757,1.50805 0.3772,4.37343 0.56543,5.5793 0.18896,1.20659 0.71689,3.61976 0.86762,4.59917 0.15073,0.98085 0.11251,0.67938 0.11251,0.67938 l 0.26397,0.18824 c 0,0 0.15289,0.81425 -0.009,1.07028 -0.25964,0.4082 -1.234,0.91305 -1.234,0.91305 l -0.11251,0.94263 c 0,0 2.52497,-0.0974 3.01467,-0.13631 0.49043,-0.0368 1.06667,0.0793 1.6321,-0.75006 0.56544,-0.83012 0.32888,-1.36093 0.32888,-1.36093 l -0.11323,-0.4522 0.0757,-0.26396 0.26396,0.26396 c 0,0 0.1666,0.87555 0.71544,1.84702 0.49043,0.86762 0.94335,0.64116 0.94335,0.64116 l 0.75367,-0.075 0.26396,-0.22647 c 0.23367,-0.73419 0.20771,-0.72698 0.71616,-1.65878 0.45293,-0.8294 0.0375,-0.71689 0.0375,-0.71689 l 0.71689,-0.33897 0.82939,-3.73227 0.15073,-1.62129 0.26397,-2.26172 0.22574,-1.24409 c 0,0 0.11323,-1.84775 0.11323,-1.84775 0,0 0.37719,-1.80952 0.49042,-2.97788 0.11323,-1.16909 -0.11323,-1.09408 -0.15073,-1.65879 -0.0382,-0.56616 0,-0.64188 -0.15073,-1.65951 -0.15074,-1.01836 0.18823,-2.07349 0.18823,-2.07349 l 0.37648,-3.69477 c 0,0 0.64188,-4.2602 1.01835,-5.61753 0.37719,-1.3566 0.11323,-1.65878 0.11323,-2.86537 0,-1.20587 0.0382,-1.50806 0.0382,-1.50806 0,0 -0.41542,-1.96025 -0.79261,-3.35508 -0.3772,-1.39482 -0.41398,-1.39482 -0.4522,-2.07348 -0.0361,-0.65342 0.0663,-1.23256 0.0736,-1.27439 0.51855,0.0512 1.17125,0.25603 1.17125,0.25603 0,0 0.30074,0 0.64043,-0.33897 0.33897,-0.33969 0.56543,-1.99848 0.64044,-2.45068 0.0757,-0.4522 0.11395,-1.58378 0.11395,-1.58378 l 0.15073,-0.22646 c 0,0 -0.11323,-0.30075 -0.11323,-0.30075 z"
       inkscape:export-filename="/home/michele/michele.ceriotti@epfl.ch/Teaching/INTRO-ATOMISTIC-MODELING/iam-notebooks/figures/social-distancing.png"
       inkscape:export-xdpi="79.954002"
       inkscape:export-ydpi="79.954002" />
    <path
       id="path3443"
       d="m 53.262747,145.28148 -0.180303,0.65702 -0.357724,0.65703 c 0,0 -0.115393,0.23151 -0.20338,0.40604 -0.05265,0.10602 -0.0952,0.19112 -0.0952,0.19112 l 0.179581,-1.13446 c 0,0 0.05914,0.17885 0.05914,-1.07533 0,-1.25419 0.05986,-3.82243 0.05986,-3.82243 L 52.486,139.24926 v -1.49291 l 0.955607,2.74782 0.05914,1.55205 c 0,0 -0.237999,3.22526 -0.238,3.22526 z m -14.962996,-2.77234 c -0.09232,0.44426 -0.06419,0.51278 -0.02741,0.71977 0.179581,1.01474 -0.184631,1.93357 -0.184631,1.93357 v 0.95489 l -0.359164,-0.35773 -0.118279,-0.71688 0.05842,-1.7915 0.16083,-2.59564 0.414697,1.46623 c 0,0 0.147849,-0.0541 0.05553,0.38729 z m 18.726281,-5.82812 -0.298581,-2.56752 c 0,0 -1.134468,-1.97107 -0.298583,-2.56823 0.836607,-0.59717 0.597164,-0.23873 0.05986,-1.01547 -0.538024,-0.77603 -0.597886,-1.97035 -1.075329,-3.28513 -0.478164,-1.31332 -1.32703,-1.50444 -1.366696,-1.60397 -0.04039,-0.0995 -0.61736,-0.81641 -0.776748,-1.01619 -0.159385,-0.19905 -3.844062,-2.35043 -3.844062,-2.35043 0,0 -0.478162,-0.0793 -0.717605,-0.15939 -0.238722,-0.0793 -0.67722,-0.39811 -0.67722,-0.39811 0,0 -0.07933,0.0599 -0.457968,-0.0793 -0.378639,-0.13992 -0.61736,-0.47817 -0.61736,-0.47817 0,0 -0.05986,-1.55421 0.0202,-1.8326 0.07933,-0.27839 0.178862,-0.77674 0.377917,-0.81641 0.199054,-0.0404 0.219247,-0.63755 0.299303,-1.07605 0.07933,-0.43777 -0.100249,-0.61736 -0.179582,-0.61736 -0.07933,0 -0.100248,-0.13919 -0.100248,-0.13919 0,0 -0.07933,-0.45848 0.06058,-0.6576 0.139192,-0.19884 0.05914,-1.25498 0.01946,-1.673 -0.03967,-0.4183 -0.338249,-0.49828 -0.338249,-0.49828 l -0.358443,-0.53752 -0.657024,-0.59753 -0.398831,-0.3187 -0.398829,-0.25913 c 0,0 -0.776026,-0.1392 -1.333523,-0.11958 -0.558218,0.0203 -1.414297,0.65746 -1.99271,1.19534 -0.57697,0.53759 -0.557497,1.39424 -0.557497,1.39424 l -0.05986,0.99578 c 0,0 0.09953,0.51798 0.09953,0.51798 l -0.323103,0.91356 v 0.83588 c 0,0 0.418303,0.0599 0.418303,0.0599 0,0 0.178861,0.65631 0.178861,0.65631 l 0.477442,1.19505 c 0,0 -0.119,1.97035 -0.119,1.97035 l -0.597164,0.11972 -0.478164,0.35844 -0.955606,0.71689 c 0,0 -0.836607,0.65702 -2.270377,1.43305 -1.433771,0.77674 -2.151377,1.85135 -2.68868,3.5837 -0.538025,1.73163 -1.852074,3.04568 -1.852074,3.04568 l 0.657024,0.41758 0.836607,0.83661 c 0,0 0.298582,3.22454 0,3.94143 -0.298582,0.71688 -0.119721,2.32879 -0.119721,4.59845 0,2.26965 0.597163,2.68724 0.597163,2.68724 l 0.359164,3.3457 v 2.38866 l 0.358443,1.55277 1.314049,0.9556 0.956328,0.77603 c 0,0 0.597164,6.09136 0.776025,9.85393 0.179581,3.76328 1.374631,8.89903 1.374631,8.89903 0,0 -0.05986,0.0599 -0.538025,0.29859 -0.478164,0.23872 0.418303,0.8366 0.418303,0.8366 0,0 0.537304,0.71617 0.537304,0.71617 0,0 -1.134467,0.77674 -1.49291,1.13446 -0.358443,0.35845 -0.299303,0.59789 -0.299303,0.59789 l 0.358442,0.29786 -0.835885,0.95633 c 0,0 -0.478164,1.13447 -0.597885,1.67177 -0.119,0.5373 0.836606,1.19505 2.031655,1.25491 1.19505,0.0591 1.851353,-0.47816 2.449238,-0.77675 0.597164,-0.29858 0.657025,-1.37391 0.657025,-1.37391 l 0.179581,-1.19432 0.955606,-0.41759 0.716886,-0.53802 0.179581,-0.95561 v -0.59716 l 0.537304,-0.35844 0.238722,-0.59717 -0.357721,-0.95561 c 0,0 -0.299303,-3.46398 -0.299303,-3.46398 l -0.119002,-8.66032 0.298583,-3.16468 0.358443,-4.83789 0.298581,3.40412 0.597886,1.49363 0.537302,1.67177 c 0,0 0.478164,6.68925 0.179584,9.19763 -0.299303,2.50837 0.418302,4.06114 0.418302,4.06114 0,0 0.178862,0.35845 0.178862,0.35845 l 0.118999,0.71616 c 0,0 0.299303,0.65702 0.299303,0.65702 l 0.895747,0.77675 c 0,0 -0.297861,0.59717 -0.297861,0.59717 l 0.657024,0.77674 0.418302,0.35844 0.178862,1.19433 0.895747,1.49291 c 0,0 0.597884,0.35844 1.792934,0.41758 1.194328,0.0599 1.55349,-0.47744 1.55349,-0.47744 l 0.597164,-1.19433 -0.597164,-2.44852 -0.597883,-0.89574 -0.955607,-0.59789 0.358443,-0.65702 v -1.31333 l -0.478165,-0.11972 0.297861,-0.83588 0.180304,-2.68724 c 0,0 -0.478165,-1.85208 -0.238721,-2.38938 0.238721,-0.5373 -0.119722,-4.83717 0.05842,-6.68852 0.180304,-1.85208 -0.776025,-5.25548 -0.776025,-5.25548 l 3.047123,-1.97107 1.37391,-2.44924 -0.178862,-0.83589 -0.418302,-1.73235 0.657023,-5.31461 c 0,0 0.238721,-3.76329 0.238721,-3.76329 z"
       fill="#2e3436"
       style="stroke-width:0.264583"
       inkscape:export-filename="/home/michele/michele.ceriotti@epfl.ch/Teaching/INTRO-ATOMISTIC-MODELING/iam-notebooks/figures/social-distancing.png"
       inkscape:export-xdpi="79.954002"
       inkscape:export-ydpi="79.954002" />
    <path
       id="path847"
       d="m 109.4611,208.00492 -0.1803,0.65702 -0.35772,0.65703 c 0,0 -0.1154,0.23151 -0.20338,0.40604 -0.0526,0.10602 -0.0952,0.19112 -0.0952,0.19112 l 0.17958,-1.13446 c 0,0 0.0591,0.17885 0.0591,-1.07533 0,-1.25419 0.0599,-3.82243 0.0599,-3.82243 l -0.23872,-1.91121 v -1.49291 l 0.9556,2.74782 0.0591,1.55205 c 0,0 -0.23799,3.22526 -0.238,3.22526 z m -14.962988,-2.77234 c -0.09232,0.44426 -0.06419,0.51278 -0.02741,0.71977 0.179581,1.01474 -0.184631,1.93357 -0.184631,1.93357 v 0.95489 l -0.359164,-0.35773 -0.118279,-0.71688 0.05842,-1.7915 0.16083,-2.59564 0.414697,1.46623 c 0,0 0.147849,-0.0541 0.05553,0.38729 z m 18.726278,-5.82812 -0.29858,-2.56752 c 0,0 -1.13447,-1.97107 -0.29858,-2.56823 0.8366,-0.59717 0.59716,-0.23873 0.0599,-1.01547 -0.53803,-0.77603 -0.59789,-1.97035 -1.07533,-3.28513 -0.47817,-1.31332 -1.32703,-1.50444 -1.3667,-1.60397 -0.0404,-0.0995 -0.61736,-0.81641 -0.77675,-1.01619 -0.15938,-0.19905 -3.84406,-2.35043 -3.84406,-2.35043 0,0 -0.47816,-0.0793 -0.7176,-0.15939 -0.23873,-0.0793 -0.67722,-0.39811 -0.67722,-0.39811 0,0 -0.0793,0.0599 -0.45797,-0.0793 -0.37864,-0.13992 -0.61736,-0.47817 -0.61736,-0.47817 0,0 -0.0599,-1.55421 0.0202,-1.8326 0.0793,-0.27839 0.17886,-0.77674 0.37791,-0.81641 0.19906,-0.0404 0.21925,-0.63755 0.29931,-1.07605 0.0793,-0.43777 -0.10025,-0.61736 -0.17958,-0.61736 -0.0793,0 -0.10025,-0.13919 -0.10025,-0.13919 0,0 -0.0793,-0.45848 0.0606,-0.6576 0.13919,-0.19884 0.0591,-1.25498 0.0195,-1.673 -0.0397,-0.4183 -0.33825,-0.49828 -0.33825,-0.49828 l -0.35844,-0.53752 -0.65703,-0.59753 -0.39883,-0.3187 -0.39883,-0.25913 c 0,0 -0.77602,-0.1392 -1.33352,-0.11958 -0.558216,0.0203 -1.414295,0.65746 -1.992708,1.19534 -0.57697,0.53759 -0.557497,1.39424 -0.557497,1.39424 l -0.05986,0.99578 c 0,0 0.09953,0.51798 0.09953,0.51798 l -0.323103,0.91356 v 0.83588 c 0,0 0.418303,0.0599 0.418303,0.0599 0,0 0.178861,0.65631 0.178861,0.65631 l 0.477442,1.19505 c 0,0 -0.119,1.97035 -0.119,1.97035 l -0.597164,0.11972 -0.478164,0.35844 -0.955606,0.71689 c 0,0 -0.836607,0.65702 -2.270377,1.43305 -1.433771,0.77674 -2.151377,1.85135 -2.68868,3.5837 -0.538025,1.73163 -1.852074,3.04568 -1.852074,3.04568 l 0.657024,0.41758 0.836607,0.83661 c 0,0 0.298582,3.22454 0,3.94143 -0.298582,0.71688 -0.119721,2.32879 -0.119721,4.59845 0,2.26965 0.597163,2.68724 0.597163,2.68724 l 0.359164,3.3457 v 2.38866 l 0.358443,1.55277 1.314049,0.9556 0.956328,0.77603 c 0,0 0.597164,6.09136 0.776025,9.85393 0.179581,3.76328 1.374631,8.89903 1.374631,8.89903 0,0 -0.05986,0.0599 -0.538025,0.29859 -0.478164,0.23872 0.418303,0.8366 0.418303,0.8366 0,0 0.537304,0.71617 0.537304,0.71617 0,0 -1.134467,0.77674 -1.49291,1.13446 -0.358443,0.35845 -0.299303,0.59789 -0.299303,0.59789 l 0.358442,0.29786 -0.835885,0.95633 c 0,0 -0.478164,1.13447 -0.597885,1.67177 -0.119,0.5373 0.836606,1.19505 2.031655,1.25491 1.19505,0.0591 1.851353,-0.47816 2.449238,-0.77675 0.597164,-0.29858 0.657025,-1.37391 0.657025,-1.37391 l 0.179581,-1.19432 0.955604,-0.41759 0.71688,-0.53802 0.17959,-0.95561 v -0.59716 l 0.5373,-0.35844 0.23872,-0.59717 -0.35772,-0.95561 c 0,0 -0.2993,-3.46398 -0.2993,-3.46398 l -0.119,-8.66032 0.29858,-3.16468 0.35844,-4.83789 0.29858,3.40412 0.59789,1.49363 0.5373,1.67177 c 0,0 0.47816,6.68925 0.17958,9.19763 -0.2993,2.50837 0.41831,4.06114 0.41831,4.06114 0,0 0.17886,0.35845 0.17886,0.35845 l 0.119,0.71616 c 0,0 0.2993,0.65702 0.2993,0.65702 l 0.89575,0.77675 c 0,0 -0.29786,0.59717 -0.29786,0.59717 l 0.65702,0.77674 0.4183,0.35844 0.17886,1.19433 0.89575,1.49291 c 0,0 0.59789,0.35844 1.79294,0.41758 1.19432,0.0599 1.55349,-0.47744 1.55349,-0.47744 l 0.59716,-1.19433 -0.59716,-2.44852 -0.59789,-0.89574 -0.9556,-0.59789 0.35844,-0.65702 v -1.31333 l -0.47817,-0.11972 0.29786,-0.83588 0.18031,-2.68724 c 0,0 -0.47817,-1.85208 -0.23872,-2.38938 0.23872,-0.5373 -0.11972,-4.83717 0.0584,-6.68852 0.1803,-1.85208 -0.77603,-5.25548 -0.77603,-5.25548 l 3.04713,-1.97107 1.37391,-2.44924 -0.17887,-0.83589 -0.4183,-1.73235 0.65702,-5.31461 c 0,0 0.23873,-3.76329 0.23873,-3.76329 z"
       fill="#2e3436"
       style="stroke-width:0.264583"
       inkscape:export-filename="/home/michele/michele.ceriotti@epfl.ch/Teaching/INTRO-ATOMISTIC-MODELING/iam-notebooks/figures/social-distancing.png"
       inkscape:export-xdpi="79.954002"
       inkscape:export-ydpi="79.954002" />
    <path
       id="path849"
       style="fill:#2e3436;stroke-width:0.264583"
       d="m 107.46823,57.365747 c 0.0462,-0.0123 0.0909,-0.0224 0.11755,-0.0202 0.0115,8.1e-4 0.0245,0.003 0.0368,0.004 0,0 -0.15434,0.0166 -0.15434,0.0166 z m -4.63307,21.88447 c -0.15074,0.49043 -0.11323,1.05586 -0.15074,1.35733 -0.0375,0.30146 -0.11323,0.11323 -0.11323,0.94262 0,0.8294 -0.15073,2.52569 -0.33897,3.39259 -0.18896,0.86761 -0.18896,1.39482 -0.18896,1.96097 0,0.56543 -0.60293,3.01539 -0.60293,3.01539 l -0.075,1.09408 -0.075,0.37647 -0.0382,-1.73379 -0.22646,-0.67866 c 0,0 -0.67866,-5.84326 -0.67866,-6.22046 0,-0.37719 -0.18823,-1.05585 -0.18823,-1.05585 l 0.15073,-0.49043 0.11323,-1.88453 0.18824,-0.86762 c 0,0 0.22646,-2.14921 0.37719,-4.07196 0.15073,-1.92276 0.64116,-4.59917 0.64116,-4.59917 l 0.15001,-0.75439 c 0,0 0.41542,1.31982 0.75439,5.16532 0.2957,3.34715 -0.17237,2.41751 0.15073,3.46831 0.15074,0.49043 0.30147,1.09336 0.15074,1.58378 z m 7.42704,-26.54134 -0.15073,-0.15145 c 0,0 0.0382,-0.0375 0.18896,-0.22646 0.15073,-0.18823 -0.18896,-0.26324 -0.22646,-0.45148 -0.0382,-0.18896 -0.71617,-2.37567 -0.71617,-2.37567 0,0 0.075,-0.49043 -0.075,-0.8294 -0.15145,-0.33897 -0.0757,-1.54556 -0.11395,-2.29994 -0.0375,-0.75367 -0.52721,-1.20587 -1.01763,-1.47056 -0.49043,-0.26324 -1.12654,-0.45364 -1.54556,-0.41469 -1.78212,0.17092 -1.70206,0.22357 -0.60366,-0.30147 0,0 0.0757,-0.60293 0.22575,-1.01763 0.15145,-0.4147 -0.0368,-0.22574 -0.15002,-0.67866 -0.11323,-0.45292 -0.0382,-0.45292 0.0375,-0.98013 0.0757,-0.52865 -0.0375,-0.75439 -0.22646,-0.98085 -0.18824,-0.22502 -0.22574,-0.075 -0.22574,-0.75366 0,-0.67795 -0.33897,-1.43305 -0.67866,-3.16678 -0.33969,-1.73437 -2.26244,-3.61962 -2.67642,-3.88308 -0.41542,-0.26389 -0.98085,-0.33947 -1.39555,-0.33947 -0.41469,0 -0.79189,0.26389 -0.79189,0.26389 0,0 -0.56471,0.11301 -0.9419,0.15081 -0.3772,0.0379 -0.86762,0.60329 -1.31982,1.13143 -0.4522,0.52735 -1.05586,2.11121 -1.24409,3.28001 -0.18824,1.16836 -0.11323,1.58306 -0.4147,2.78892 -0.30147,1.20731 -0.56543,1.73452 -0.56543,1.73452 l 0.22573,0.90512 1.29387,0.79117 c 0,0 0.31372,0.47095 0.31372,0.47095 0,0 -1.0472,0.5236 -2.21052,0.73636 -1.0811,0.19761 -1.20659,0.49042 -1.50805,2.18672 -0.30147,1.69629 -0.45292,4.67418 -0.71689,6.86161 -0.26324,2.186 1.35805,4.56167 1.58451,4.82563 0.14135,0.16516 0.52504,0.16372 0.79261,0.13992 0.12405,2.07493 0.17381,0.20843 -10e-4,2.0468 -0.075,0.79189 -0.18824,1.69629 -0.18824,1.69629 l -0.0757,0.60366 c 0,0 -0.22574,0.71544 -0.37719,1.28159 -0.15001,0.56543 0,1.88525 0,1.88525 0,0 0.0382,1.88525 0.0382,2.29995 v 1.01691 c 0,0 0.33897,4.52489 0.60293,6.48514 0.26397,1.96026 0.3772,4.75063 0.3772,4.75063 l -0.0375,0.30146 0.075,0.30147 -0.11323,0.3772 c 0,0 0.0382,0.37647 0,0.67866 -0.0375,0.30146 -0.22574,1.28231 -0.22574,1.28231 0,0 0.11323,0.9044 0.0375,2.41246 -0.0757,1.50805 0.3772,4.37343 0.56543,5.5793 0.18896,1.20659 0.71689,3.61976 0.86762,4.59917 0.15073,0.980851 0.11251,0.679381 0.11251,0.679381 l 0.26397,0.18824 c 0,0 0.15289,0.814244 -0.009,1.070274 -0.25964,0.408197 -1.234,0.913044 -1.234,0.913044 l -0.11251,0.942624 c 0,0 2.52497,-0.0974 3.01467,-0.136307 0.49043,-0.0368 1.06667,0.0793 1.6321,-0.750057 0.56544,-0.830114 0.32888,-1.360921 0.32888,-1.360921 l -0.11323,-0.452197 0.0757,-0.26396 0.26396,0.26396 c 0,0 0.1666,0.875544 0.71544,1.847008 0.49043,0.867614 0.94335,0.641157 0.94335,0.641157 l 0.75367,-0.075 0.26396,-0.22647 c 0.23367,-0.734184 0.20771,-0.726974 0.71616,-1.658768 0.45293,-0.829397 0.0375,-0.716887 0.0375,-0.716887 l 0.71689,-0.338967 0.82939,-3.732274 0.15073,-1.62129 0.26397,-2.26172 0.22574,-1.24409 c 0,0 0.11323,-1.84775 0.11323,-1.84775 0,0 0.37719,-1.80952 0.49042,-2.97788 0.11323,-1.16909 -0.11323,-1.09408 -0.15073,-1.65879 -0.0382,-0.56616 0,-0.64188 -0.15073,-1.65951 -0.15074,-1.01836 0.18823,-2.07349 0.18823,-2.07349 l 0.37648,-3.69477 c 0,0 0.64188,-4.2602 1.01835,-5.61753 0.37719,-1.3566 0.11323,-1.65878 0.11323,-2.86537 0,-1.20587 0.0382,-1.50806 0.0382,-1.50806 0,0 -0.41542,-1.96025 -0.79261,-3.35508 -0.3772,-1.39482 -0.41398,-1.39482 -0.4522,-2.07348 -0.0361,-0.65342 0.0663,-1.23256 0.0736,-1.27439 0.51855,0.0512 1.17125,0.25603 1.17125,0.25603 0,0 0.30074,0 0.64043,-0.33897 0.33897,-0.33969 0.56543,-1.99848 0.64044,-2.45068 0.0757,-0.4522 0.11395,-1.58378 0.11395,-1.58378 l 0.15073,-0.22646 c 0,0 -0.11323,-0.30075 -0.11323,-0.30075 z"
       inkscape:export-filename="/home/michele/michele.ceriotti@epfl.ch/Teaching/INTRO-ATOMISTIC-MODELING/iam-notebooks/figures/social-distancing.png"
       inkscape:export-xdpi="79.954002"
       inkscape:export-ydpi="79.954002" />
    <path
       style="fill:#aa0000;stroke:#aa0000;stroke-width:3;stroke-linecap:butt;stroke-linejoin:miter;stroke-miterlimit:4;stroke-dasharray:none;stroke-opacity:1;marker-start:url(#Arrow2Mstart);marker-end:url(#Arrow2Mend)"
       d="m 71.725584,136.68102 c 19.533567,0 39.066956,0 58.600176,0"
       id="path1025"
       inkscape:path-effect="#path-effect1027"
       inkscape:original-d="m 71.725584,136.68102 c 19.533567,1.8e-4 39.066956,1.8e-4 58.600176,0"
       inkscape:export-filename="/home/michele/michele.ceriotti@epfl.ch/Teaching/INTRO-ATOMISTIC-MODELING/iam-notebooks/figures/social-distancing.png"
       inkscape:export-xdpi="79.954002"
       inkscape:export-ydpi="79.954002" />
    <path
       style="fill:#aa0000;stroke:#aa0000;stroke-width:3;stroke-linecap:butt;stroke-linejoin:miter;stroke-miterlimit:4;stroke-dasharray:none;stroke-opacity:1;marker-start:url(#Arrow2Mstart);marker-end:url(#Arrow2Mend)"
       d="m 101.02567,107.38093 c 0,19.53357 0,39.06696 0,58.60018"
       id="path1465"
       inkscape:path-effect="#path-effect1469"
       inkscape:original-d="m 101.02567,107.38093 c -1.8e-4,19.53357 -1.8e-4,39.06696 0,58.60018"
       inkscape:export-filename="/home/michele/michele.ceriotti@epfl.ch/Teaching/INTRO-ATOMISTIC-MODELING/iam-notebooks/figures/social-distancing.png"
       inkscape:export-xdpi="79.954002"
       inkscape:export-ydpi="79.954002" />
    <path
       style="fill:#aa0000;stroke:#aa0000;stroke-width:3;stroke-linecap:butt;stroke-linejoin:miter;stroke-miterlimit:4;stroke-dasharray:none;stroke-opacity:1;marker-start:url(#Arrow2Mstart);marker-end:url(#Arrow2Mend)"
       d="M 45.759146,102.10263 C 59.571463,88.290314 73.383655,74.478123 87.195728,60.666051"
       id="path1551"
       inkscape:path-effect="#path-effect1555"
       inkscape:original-d="M 45.759146,102.10263 C 59.571591,88.290442 73.383783,74.478251 87.195728,60.666051"
       inkscape:export-filename="/home/michele/michele.ceriotti@epfl.ch/Teaching/INTRO-ATOMISTIC-MODELING/iam-notebooks/figures/social-distancing.png"
       inkscape:export-xdpi="79.954002"
       inkscape:export-ydpi="79.954002" />
    <path
       style="fill:#aa0000;stroke:#aa0000;stroke-width:3;stroke-linecap:butt;stroke-linejoin:miter;stroke-miterlimit:4;stroke-dasharray:none;stroke-opacity:1;marker-start:url(#Arrow2Mstart);marker-end:url(#Arrow2Mend)"
       d="M 156.5166,102.10263 C 142.70428,88.290316 128.89208,74.478126 115.07999,60.666051"
       id="path1557"
       inkscape:path-effect="#path-effect1561"
       inkscape:original-d="M 156.5166,102.10263 C 142.70415,88.290442 128.89195,74.478251 115.07999,60.666051"
       inkscape:export-filename="/home/michele/michele.ceriotti@epfl.ch/Teaching/INTRO-ATOMISTIC-MODELING/iam-notebooks/figures/social-distancing.png"
       inkscape:export-xdpi="79.954002"
       inkscape:export-ydpi="79.954002" />
    <path
       style="fill:#aa0000;stroke:#aa0000;stroke-width:3;stroke-linecap:butt;stroke-linejoin:miter;stroke-miterlimit:4;stroke-dasharray:none;stroke-opacity:1;marker-start:url(#Arrow2Mstart);marker-end:url(#Arrow2Mend)"
       d="m 45.759146,182.37443 c 13.812314,13.81232 27.624507,27.62452 41.436582,41.4366"
       id="path1563"
       inkscape:path-effect="#path-effect1567"
       inkscape:original-d="m 45.759146,182.37443 c 13.812445,13.81219 27.624637,27.62439 41.436582,41.4366"
       inkscape:export-filename="/home/michele/michele.ceriotti@epfl.ch/Teaching/INTRO-ATOMISTIC-MODELING/iam-notebooks/figures/social-distancing.png"
       inkscape:export-xdpi="79.954002"
       inkscape:export-ydpi="79.954002" />
    <path
       style="fill:#aa0000;stroke:#aa0000;stroke-width:3;stroke-linecap:butt;stroke-linejoin:miter;stroke-miterlimit:4;stroke-dasharray:none;stroke-opacity:1;marker-start:url(#Arrow2Mstart);marker-end:url(#Arrow2Mend)"
       d="m 156.5166,182.37443 c -13.81232,13.81232 -27.62452,27.62452 -41.43661,41.4366"
       id="path1569"
       inkscape:path-effect="#path-effect1573"
       inkscape:original-d="m 156.5166,182.37443 c -13.81245,13.81219 -27.62465,27.62439 -41.43661,41.4366"
       inkscape:export-filename="/home/michele/michele.ceriotti@epfl.ch/Teaching/INTRO-ATOMISTIC-MODELING/iam-notebooks/figures/social-distancing.png"
       inkscape:export-xdpi="79.954002"
       inkscape:export-ydpi="79.954002" />
    <text
       xml:space="preserve"
       style="font-size:17.4215px;line-height:1.25;font-family:Helvetica;-inkscape-font-specification:Helvetica;letter-spacing:0px;word-spacing:0px;fill:#aa0000;stroke:#800000;stroke-width:0.264584"
       x="182.35046"
       y="121.37415"
       id="text3733"
       inkscape:export-filename="/home/michele/michele.ceriotti@epfl.ch/Teaching/INTRO-ATOMISTIC-MODELING/iam-notebooks/figures/social-distancing.png"
       inkscape:export-xdpi="79.954002"
       inkscape:export-ydpi="79.954002"><tspan
         sodipodi:role="line"
         style="font-weight:bold;fill:#aa0000;stroke:#800000;stroke-width:0.264584"
         x="182.35046"
         y="121.37415"
         id="tspan3735">KEEP A DISTANCE</tspan><tspan
         sodipodi:role="line"
         style="font-weight:bold;fill:#aa0000;stroke:#800000;stroke-width:0.264584"
         x="182.35046"
         y="143.15103"
         id="tspan3973">OF 2 METERS </tspan><tspan
         sodipodi:role="line"
         style="font-weight:bold;fill:#aa0000;stroke:#800000;stroke-width:0.264584"
         x="182.35046"
         y="164.9279"
         id="tspan3975">BETWEEN PEOPLE</tspan></text>
  </g>
</svg>
